<svg width="33" height="33" viewBox="0 0 33 33" fill="none" xmlns="http://www.w3.org/2000/svg">
<g id="Icon - Category">
<path id="Vector" d="M10.9085 18.1007C12.7885 18.1007 14.2951 19.622 14.2951 21.5154V26.0607C14.2951 27.9407 12.7885 29.474 10.9085 29.474H6.4018C4.53514 29.474 3.01514 27.9407 3.01514 26.0607V21.5154C3.01514 19.622 4.53514 18.1007 6.4018 18.1007H10.9085ZM26.2953 18.1007C28.1619 18.1007 29.6819 19.622 29.6819 21.5154V26.0607C29.6819 27.9407 28.1619 29.474 26.2953 29.474H21.7886C19.9086 29.474 18.4019 27.9407 18.4019 26.0607V21.5154C18.4019 19.622 19.9086 18.1007 21.7886 18.1007H26.2953ZM10.9085 2.80777C12.7885 2.80777 14.2951 4.3411 14.2951 6.22244V10.7678C14.2951 12.6611 12.7885 14.1811 10.9085 14.1811H6.4018C4.53514 14.1811 3.01514 12.6611 3.01514 10.7678V6.22244C3.01514 4.3411 4.53514 2.80777 6.4018 2.80777H10.9085ZM26.2953 2.80777C28.1619 2.80777 29.6819 4.3411 29.6819 6.22244V10.7678C29.6819 12.6611 28.1619 14.1811 26.2953 14.1811H21.7886C19.9086 14.1811 18.4019 12.6611 18.4019 10.7678V6.22244C18.4019 4.3411 19.9086 2.80777 21.7886 2.80777H26.2953Z" fill="white"/>
</g>
</svg>
