<svg width="25" height="25" viewBox="0 0 25 25" fill="none" xmlns="http://www.w3.org/2000/svg">
<g id="Icon - Arrow">
<path id="Arrow" d="M4.34863 12.3412C4.34863 11.9615 4.63079 11.6478 4.99686 11.5981L5.09863 11.5912L18.2826 11.5918L13.5196 6.84832C13.2261 6.55605 13.2251 6.08118 13.5174 5.78766C13.7831 5.52082 14.1997 5.49572 14.4937 5.71294L14.578 5.78537L20.628 11.8094C20.6667 11.8479 20.7003 11.8896 20.7288 11.9336C20.7369 11.9469 20.7451 11.9604 20.7529 11.9743C20.76 11.9861 20.7665 11.9984 20.7726 12.0109C20.781 12.029 20.7893 12.0477 20.7968 12.0668C20.8029 12.0815 20.808 12.0958 20.8127 12.1103C20.8182 12.1281 20.8236 12.1472 20.8282 12.1666C20.8316 12.1801 20.8343 12.1931 20.8367 12.2062C20.84 12.2256 20.8429 12.2457 20.8449 12.266C20.8467 12.2816 20.8477 12.2969 20.8483 12.3123C20.8484 12.3217 20.8486 12.3314 20.8486 12.3412L20.8483 12.3703C20.8477 12.385 20.8467 12.3997 20.8452 12.4144L20.8486 12.3412C20.8486 12.3886 20.8442 12.4349 20.8359 12.4798C20.8339 12.4905 20.8316 12.5015 20.829 12.5125C20.8237 12.535 20.8176 12.5568 20.8105 12.5781C20.807 12.5887 20.8029 12.6 20.7986 12.6112C20.7898 12.6338 20.7803 12.6553 20.7698 12.6763C20.765 12.6861 20.7595 12.6964 20.7538 12.7067C20.7444 12.7233 20.7348 12.7391 20.7246 12.7546C20.7174 12.7655 20.7094 12.7769 20.701 12.788L20.6946 12.7967C20.6744 12.8231 20.6524 12.8481 20.629 12.8716L20.6281 12.8723L14.5781 18.8973C14.2846 19.1896 13.8097 19.1886 13.5174 18.8951C13.2517 18.6283 13.2283 18.2115 13.4468 17.9184L13.5196 17.8344L18.2806 13.0918L5.09863 13.0912C4.68442 13.0912 4.34863 12.7555 4.34863 12.3412Z" fill="#2162F0"/>
</g>
</svg>
