<svg width="33" height="33" viewBox="0 0 33 33" fill="none" xmlns="http://www.w3.org/2000/svg">
<g id="Icon - Wallet">
<path id="Vector" d="M22.8038 4.14111C27.4023 4.14111 30.1164 6.78724 30.1164 11.3168H24.4749V11.3631C21.8567 11.3631 19.7342 13.4324 19.7342 15.9851C19.7342 18.5378 21.8567 20.6072 24.4749 20.6072H30.1164V21.0232C30.1164 25.495 27.4023 28.1411 22.8038 28.1411H10.7623C6.16378 28.1411 3.44971 25.495 3.44971 21.0232V11.2591C3.44971 6.78724 6.16378 4.14111 10.7623 4.14111H22.8038ZM29.1208 13.3043C29.6707 13.3043 30.1164 13.7389 30.1164 14.275V17.6491C30.11 18.1825 29.668 18.6134 29.1208 18.6197H24.5816C23.2561 18.6371 22.097 17.7523 21.7964 16.4935C21.6458 15.7122 21.8572 14.9059 22.3738 14.2907C22.8904 13.6756 23.6595 13.3145 24.4749 13.3043H29.1208ZM25.1149 14.8643H24.6764C24.4071 14.8612 24.1479 14.9633 23.9564 15.1478C23.7649 15.3324 23.6571 15.584 23.6571 15.8465C23.6571 16.3972 24.1115 16.8454 24.6764 16.8518H25.1149C25.6778 16.8518 26.1342 16.4068 26.1342 15.858C26.1342 15.3092 25.6778 14.8643 25.1149 14.8643ZM17.2927 9.32937H9.76674C9.20842 9.32933 8.75398 9.76724 8.74749 10.3116C8.74749 10.8623 9.20191 11.3105 9.76674 11.3168H17.2927C17.8556 11.3168 18.3119 10.8719 18.3119 10.3231C18.3119 9.77428 17.8556 9.32937 17.2927 9.32937Z" fill="white"/>
</g>
</svg>
