<svg width="33" height="33" viewBox="0 0 33 33" fill="none" xmlns="http://www.w3.org/2000/svg">
<g id="Icon - Edit">
<path id="Vector" d="M22.4385 2.82155C24.3565 2.70167 26.2479 3.36765 27.6731 4.67297C28.9784 6.09816 29.6444 7.98954 29.5379 9.92087V22.3613C29.6577 24.2927 28.9784 26.184 27.6864 27.6092C26.2612 28.9146 24.3565 29.5805 22.4385 29.4607H9.99792C8.06657 29.5805 6.17518 28.9146 4.74998 27.6092C3.44465 26.184 2.77867 24.2927 2.89855 22.3613V9.92087C2.77867 7.98954 3.44465 6.09816 4.74998 4.67297C6.17518 3.36765 8.06657 2.70167 9.99792 2.82155H22.4385ZM22.0922 8.90859C21.2664 8.08277 19.9344 8.08277 19.1086 8.90859L18.2162 9.81432C18.083 9.94751 18.083 10.1739 18.2162 10.3071C18.2162 10.3071 18.2423 10.3331 18.2888 10.3794L18.6165 10.7052C18.806 10.8938 19.0425 11.1293 19.2801 11.366L20.0855 12.1711C20.2536 12.3399 20.3651 12.4531 20.3739 12.4649C20.5205 12.6247 20.6137 12.8379 20.6137 13.0776C20.6137 13.5571 20.2274 13.9567 19.7346 13.9567C19.5082 13.9567 19.295 13.8635 19.1485 13.7169L16.9241 11.5059C16.8176 11.3993 16.6311 11.3993 16.5246 11.5059L10.1711 17.8593C9.73153 18.2989 9.47846 18.8849 9.46514 19.511L9.38522 22.6677C9.38522 22.8408 9.4385 23.0007 9.55838 23.1205C9.67825 23.2404 9.83809 23.307 10.0112 23.307H13.1414C13.7807 23.307 14.3934 23.054 14.8596 22.6011L23.8237 13.6104C24.6362 12.7846 24.6362 11.4526 23.8237 10.6401L22.0922 8.90859Z" fill="white"/>
</g>
</svg>
