<svg width="111" height="22" viewBox="0 0 111 22" fill="none" xmlns="http://www.w3.org/2000/svg">
<g id="Spinfluence">
<path d="M9.64491 12.6241C9.64491 13.9534 9.17497 15.0167 8.23509 15.8142C7.30967 16.597 6.08784 16.9884 4.56957 16.9884C2.92117 16.9884 1.55474 16.6709 0.470264 16.0358V13.178C1.71379 14.0937 3.073 14.5515 4.54788 14.5515C5.21303 14.5515 5.74803 14.389 6.1529 14.0641C6.55777 13.7244 6.76021 13.274 6.76021 12.7128C6.76021 12.4469 6.7096 12.2106 6.60838 12.0038C6.50716 11.7971 6.2975 11.5903 5.97939 11.3835C5.67574 11.1768 5.43715 11.0291 5.26364 10.9405C5.10458 10.8519 4.76478 10.6894 4.24423 10.4531C4.09963 10.3793 3.99119 10.3276 3.91889 10.298C3.38388 10.047 2.95009 9.82542 2.61752 9.63342C2.28495 9.42665 1.92346 9.15343 1.53305 8.81374C1.14264 8.47405 0.846214 8.06791 0.643779 7.5953C0.455804 7.12269 0.361816 6.58362 0.361816 5.97809C0.361816 4.70796 0.817295 3.6889 1.72825 2.92091C2.65367 2.15292 3.87551 1.76893 5.39377 1.76893C6.76744 1.76893 7.95313 2.01261 8.95084 2.49999V5.20272C7.86637 4.53811 6.7096 4.20581 5.48053 4.20581C4.80093 4.20581 4.26592 4.36089 3.87551 4.67103C3.49956 4.98118 3.31158 5.37995 3.31158 5.86732C3.31158 6.3547 3.51402 6.76085 3.91889 7.08577C4.33822 7.39592 4.95998 7.74299 5.78418 8.12698C6.36257 8.39282 6.83251 8.62913 7.194 8.83589C7.55549 9.02789 7.9459 9.30112 8.36523 9.65557C8.79902 10.01 9.11713 10.4383 9.31957 10.9405C9.53646 11.4279 9.64491 11.9891 9.64491 12.6241Z" fill="black"/>
<path d="M14.5376 21.0425H11.9348V5.57933H14.5376V7.3073C15.3184 6.05194 16.439 5.42425 17.8994 5.42425C19.3309 5.42425 20.466 5.94855 21.3047 6.99715C22.1578 8.04575 22.5844 9.42665 22.5844 11.1399C22.5844 12.8235 22.1578 14.2192 21.3047 15.3269C20.466 16.4198 19.3237 16.9662 17.8778 16.9662C16.4029 16.9662 15.2895 16.3533 14.5376 15.1275V21.0425ZM15.3618 8.5479C14.8123 9.12389 14.5376 9.98049 14.5376 11.1177C14.5376 12.2549 14.8051 13.1337 15.3401 13.754C15.8751 14.3743 16.5185 14.6844 17.2704 14.6844C18.0513 14.6844 18.6875 14.3817 19.1791 13.7761C19.6707 13.1558 19.9166 12.2918 19.9166 11.1842C19.9166 10.0765 19.6707 9.21989 19.1791 8.61436C18.6875 7.99406 18.0657 7.68391 17.3138 7.68391C16.5619 7.68391 15.9112 7.97191 15.3618 8.5479Z" fill="black"/>
<path d="M27.5241 16.8112H24.9214V5.57933H27.5241V16.8112ZM27.7844 2.21199C27.7844 2.66983 27.6326 3.05383 27.3289 3.36398C27.0253 3.67413 26.6566 3.8292 26.2228 3.8292C25.789 3.8292 25.4203 3.67413 25.1166 3.36398C24.813 3.05383 24.6611 2.66983 24.6611 2.21199C24.6611 1.76893 24.813 1.39232 25.1166 1.08217C25.4203 0.772018 25.789 0.616943 26.2228 0.616943C26.6566 0.616943 27.0253 0.772018 27.3289 1.08217C27.6326 1.39232 27.7844 1.76893 27.7844 2.21199Z" fill="black"/>
<path d="M39.9905 16.8112H37.3878V9.89926C37.3878 9.16081 37.2143 8.60697 36.8672 8.23775C36.5202 7.85376 36.0503 7.66176 35.4574 7.66176C34.7778 7.66176 34.2066 7.93498 33.7439 8.48144C33.2812 9.01312 33.0499 9.78111 33.0499 10.7854V16.8112H30.4471V5.57933H33.0499V7.50668C33.6716 6.13317 34.7995 5.44641 36.4334 5.44641C37.5324 5.44641 38.3999 5.78609 39.0362 6.46547C39.6724 7.14484 39.9905 8.10483 39.9905 9.34542V16.8112Z" fill="black"/>
<path d="M48.3503 7.57314H46.1596V16.8112H43.5569V7.57314H41.9519V5.57933H43.5569V4.91472C43.5569 3.65936 43.8967 2.67722 44.5763 1.96831C45.2559 1.25939 46.1958 0.904938 47.3959 0.904938C47.9454 0.904938 48.4226 0.971398 48.8274 1.10432V3.34182C48.4515 3.19413 48.09 3.12029 47.743 3.12029C46.6874 3.12029 46.1596 3.72582 46.1596 4.93688V5.57933H48.3503V7.57314Z" fill="black"/>
<path d="M52.7932 16.8112H50.1905V1.14863H52.7932V16.8112Z" fill="black"/>
<path d="M65.1511 16.8112H62.5267V14.9724C61.9483 16.2721 60.8205 16.9219 59.1431 16.9219C58.0298 16.9219 57.1622 16.597 56.5404 15.9472C55.9186 15.2973 55.6078 14.3743 55.6078 13.178V5.57933H58.2105V12.5577C58.2105 13.2666 58.3768 13.8057 58.7094 14.1749C59.0564 14.5441 59.5263 14.7287 60.1192 14.7287C60.8711 14.7287 61.4567 14.4703 61.876 13.9534C62.3098 13.4364 62.5267 12.6537 62.5267 11.6051V5.57933H65.1511V16.8112Z" fill="black"/>
<path d="M76.3739 16.1909C75.6075 16.6782 74.5014 16.9219 73.0554 16.9219C71.3058 16.9219 69.9249 16.3902 68.9127 15.3269C67.9006 14.2635 67.3945 12.89 67.3945 11.2063C67.3945 9.41927 67.8716 8.01621 68.826 6.99715C69.7803 5.97809 70.9732 5.46856 72.4047 5.46856C73.8362 5.46856 74.9713 5.91163 75.81 6.79777C76.6486 7.68391 77.068 8.9762 77.068 10.6746C77.068 11.0882 77.0173 11.6199 76.9161 12.2697H70.0189C70.2069 13.082 70.5973 13.7023 71.1901 14.1306C71.7974 14.5589 72.5493 14.773 73.4458 14.773C74.6026 14.773 75.5786 14.4777 76.3739 13.8869V16.1909ZM72.4698 7.55099C71.848 7.55099 71.3058 7.78729 70.8431 8.2599C70.3948 8.71774 70.1056 9.38973 69.9755 10.2759H74.5954V9.94357C74.5664 9.21989 74.3712 8.6439 74.0098 8.2156C73.6627 7.77253 73.1494 7.55099 72.4698 7.55099Z" fill="black"/>
<path d="M89.0036 16.8112H86.4009V9.89926C86.4009 9.16081 86.2274 8.60697 85.8803 8.23775C85.5333 7.85376 85.0634 7.66176 84.4705 7.66176C83.7909 7.66176 83.2197 7.93498 82.757 8.48144C82.2943 9.01312 82.063 9.78111 82.063 10.7854V16.8112H79.4602V5.57933H82.063V7.50668C82.6847 6.13317 83.8126 5.44641 85.4465 5.44641C86.5455 5.44641 87.413 5.78609 88.0493 6.46547C88.6855 7.14484 89.0036 8.10483 89.0036 9.34542V16.8112Z" fill="black"/>
<path d="M99.6842 16.3238C98.9178 16.7816 97.9634 17.0105 96.8211 17.0105C95.1294 17.0105 93.7557 16.4641 92.7001 15.3712C91.659 14.2783 91.1385 12.8974 91.1385 11.2285C91.153 9.58911 91.6735 8.20821 92.7001 7.08577C93.7412 5.96332 95.1583 5.4021 96.9513 5.4021C98.0213 5.4021 98.9322 5.60887 99.6842 6.0224V8.37067C98.9612 7.89806 98.137 7.66176 97.2115 7.66176C96.1994 7.66176 95.3824 7.98668 94.7606 8.63651C94.1389 9.28635 93.8208 10.1503 93.8063 11.2285C93.8352 12.2918 94.1461 13.1484 94.739 13.7983C95.3463 14.4481 96.1632 14.773 97.1899 14.773C98.0864 14.773 98.9178 14.522 99.6842 14.0198V16.3238Z" fill="black"/>
<path d="M110.306 16.1909C109.54 16.6782 108.434 16.9219 106.988 16.9219C105.238 16.9219 103.857 16.3902 102.845 15.3269C101.833 14.2635 101.327 12.89 101.327 11.2063C101.327 9.41927 101.804 8.01621 102.758 6.99715C103.712 5.97809 104.905 5.46856 106.337 5.46856C107.768 5.46856 108.903 5.91163 109.742 6.79777C110.581 7.68391 111 8.9762 111 10.6746C111 11.0882 110.95 11.6199 110.848 12.2697H103.951C104.139 13.082 104.529 13.7023 105.122 14.1306C105.73 14.5589 106.481 14.773 107.378 14.773C108.535 14.773 109.511 14.4777 110.306 13.8869V16.1909ZM106.402 7.55099C105.78 7.55099 105.238 7.78729 104.775 8.2599C104.327 8.71774 104.038 9.38973 103.908 10.2759H108.528V9.94357C108.499 9.21989 108.303 8.6439 107.942 8.2156C107.595 7.77253 107.082 7.55099 106.402 7.55099Z" fill="black"/>
</g>
</svg>
