<svg width="131" height="32" viewBox="0 0 131 32" fill="none" xmlns="http://www.w3.org/2000/svg">
<g id="45+ Years Of Experience">
<path d="M53.0816 8.62046V7.00142L57.0808 0.605957H58.4559V2.84698H57.6421L55.121 6.89696V6.97293H60.804V8.62046H53.0816ZM57.6795 10.3297V8.12667L57.7169 7.40974V0.605957H59.6159V10.3297H57.6795Z" fill="white"/>
<path d="M65.6521 10.4627C64.991 10.4627 64.4016 10.3392 63.884 10.0923C63.3695 9.84542 62.961 9.50516 62.6585 9.07151C62.3561 8.63787 62.1986 8.14092 62.1861 7.58066H64.1506C64.1725 7.95733 64.3284 8.26278 64.6184 8.49701C64.9084 8.73124 65.2529 8.84836 65.6521 8.84836C65.9701 8.84836 66.2508 8.77714 66.494 8.6347C66.7403 8.4891 66.9321 8.2881 67.0693 8.03172C67.2096 7.77216 67.2798 7.47463 67.2798 7.13911C67.2798 6.79726 67.2081 6.49655 67.0646 6.237C66.9243 5.97745 66.7294 5.77487 66.48 5.62926C66.2305 5.48366 65.9452 5.40928 65.624 5.40611C65.3434 5.40611 65.0705 5.46467 64.8055 5.58179C64.5435 5.6989 64.3393 5.85875 64.1927 6.06133L62.3919 5.73372L62.8456 0.605957H68.7017V2.28672H64.5155L64.2676 4.72241H64.3237C64.4921 4.48185 64.7462 4.28244 65.0861 4.12417C65.426 3.96591 65.8064 3.88678 66.2274 3.88678C66.8043 3.88678 67.3188 4.02447 67.7709 4.29984C68.2231 4.57522 68.5801 4.95348 68.842 5.4346C69.104 5.91256 69.2334 6.46332 69.2303 7.08688C69.2334 7.74209 69.0837 8.3245 68.7812 8.83412C68.4819 9.34056 68.0625 9.73939 67.523 10.0306C66.9867 10.3186 66.363 10.4627 65.6521 10.4627Z" fill="white"/>
<path d="M73.5054 8.84836V2.12529H75.1799V8.84836H73.5054ZM71.031 6.33671V4.63695H77.6542V6.33671H71.031Z" fill="white"/>
<path d="M0.755859 19.547H3.02438L5.20872 23.7347H5.30227L7.4866 19.547H9.75512L6.26113 25.8333V29.2708H4.24986V25.8333L0.755859 19.547Z" fill="white"/>
<path d="M12.5931 29.4132C11.8541 29.4132 11.218 29.2613 10.6848 28.9574C10.1546 28.6504 9.74616 28.2167 9.45928 27.6565C9.1724 27.0931 9.02896 26.4268 9.02896 25.6576C9.02896 24.9074 9.1724 24.2491 9.45928 23.6825C9.74616 23.1159 10.15 22.6743 10.6707 22.3578C11.1946 22.0413 11.8089 21.883 12.5136 21.883C12.9876 21.883 13.4288 21.9606 13.8373 22.1157C14.2489 22.2676 14.6075 22.4971 14.9131 22.8041C15.2218 23.1111 15.4619 23.4973 15.6334 23.9626C15.8049 24.4247 15.8907 24.966 15.8907 25.5864V26.1419H9.82411V24.8884H14.015C14.015 24.5972 13.9527 24.3393 13.8279 24.1145C13.7032 23.8898 13.5302 23.7141 13.3088 23.5875C13.0905 23.4577 12.8363 23.3928 12.5463 23.3928C12.2439 23.3928 11.9757 23.4641 11.7418 23.6065C11.5111 23.7458 11.3302 23.9341 11.1993 24.1715C11.0683 24.4057 11.0013 24.6669 10.9981 24.9549V26.1466C10.9981 26.5075 11.0636 26.8193 11.1946 27.082C11.3287 27.3447 11.5173 27.5473 11.7605 27.6897C12.0038 27.8322 12.2922 27.9034 12.6259 27.9034C12.8473 27.9034 13.0499 27.8717 13.2339 27.8084C13.4179 27.7451 13.5754 27.6502 13.7063 27.5235C13.8373 27.3969 13.9371 27.2418 14.0057 27.0582L15.8486 27.1817C15.755 27.6312 15.5633 28.0237 15.2733 28.3592C14.9864 28.6915 14.6153 28.9511 14.16 29.1378C13.7079 29.3214 13.1856 29.4132 12.5931 29.4132Z" fill="white"/>
<path d="M19.2397 29.4085C18.7813 29.4085 18.3728 29.3278 18.0142 29.1663C17.6556 29.0017 17.3718 28.7596 17.1629 28.4399C16.9571 28.117 16.8542 27.715 16.8542 27.2339C16.8542 26.8288 16.9275 26.4885 17.074 26.2131C17.2206 25.9377 17.4202 25.7162 17.6727 25.5484C17.9253 25.3806 18.2122 25.254 18.5334 25.1686C18.8577 25.0831 19.1976 25.023 19.553 24.9881C19.9709 24.9438 20.3077 24.9027 20.5634 24.8647C20.8191 24.8236 21.0046 24.7634 21.12 24.6843C21.2353 24.6051 21.293 24.488 21.293 24.3329V24.3044C21.293 24.0037 21.1995 23.7711 21.0124 23.6065C20.8284 23.4419 20.5665 23.3596 20.2266 23.3596C19.868 23.3596 19.5827 23.4403 19.3706 23.6018C19.1586 23.76 19.0183 23.9594 18.9497 24.2L17.1068 24.0481C17.2003 23.6049 17.3843 23.2219 17.6587 22.8991C17.9331 22.573 18.287 22.323 18.7205 22.1489C19.157 21.9716 19.6622 21.883 20.2359 21.883C20.6351 21.883 21.0171 21.9305 21.3819 22.0254C21.7499 22.1204 22.0757 22.2676 22.3595 22.467C22.6464 22.6664 22.8724 22.9228 23.0377 23.2362C23.203 23.5464 23.2856 23.9183 23.2856 24.3519V29.2708H21.3959V28.2595H21.3398C21.2244 28.4874 21.0701 28.6884 20.8767 28.8625C20.6834 29.0334 20.4511 29.1679 20.1798 29.266C19.9085 29.361 19.5951 29.4085 19.2397 29.4085ZM19.8103 28.0126C20.1034 28.0126 20.3622 27.954 20.5867 27.8369C20.8113 27.7166 20.9874 27.5552 21.1153 27.3526C21.2431 27.15 21.3071 26.9206 21.3071 26.6642V25.8903C21.2447 25.9314 21.1589 25.9694 21.0498 26.0042C20.9438 26.0359 20.8237 26.0659 20.6896 26.0944C20.5556 26.1197 20.4215 26.1435 20.2874 26.1656C20.1533 26.1846 20.0317 26.202 19.9226 26.2179C19.6887 26.2527 19.4844 26.3081 19.3098 26.384C19.1352 26.46 18.9996 26.5629 18.9029 26.6927C18.8062 26.8193 18.7579 26.9775 18.7579 27.1674C18.7579 27.4428 18.8561 27.6533 19.0526 27.7989C19.2521 27.9414 19.5047 28.0126 19.8103 28.0126Z" fill="white"/>
<path d="M24.8315 29.2708V21.978H26.7632V23.2504H26.8381C26.969 22.7978 27.1889 22.4559 27.4976 22.2249C27.8063 21.9906 28.1618 21.8735 28.564 21.8735C28.6638 21.8735 28.7714 21.8798 28.8867 21.8925C29.0021 21.9052 29.1035 21.9226 29.1908 21.9447V23.7394C29.0972 23.711 28.9678 23.6856 28.8026 23.6635C28.6373 23.6413 28.486 23.6302 28.3488 23.6302C28.0557 23.6302 27.7938 23.6951 27.563 23.8249C27.3354 23.9515 27.1546 24.1288 27.0205 24.3567C26.8895 24.5846 26.824 24.8473 26.824 25.1448V29.2708H24.8315Z" fill="white"/>
<path d="M36.1987 24.0576L34.3745 24.1715C34.3433 24.0132 34.2762 23.8708 34.1733 23.7442C34.0704 23.6144 33.9348 23.5115 33.7664 23.4356C33.6011 23.3564 33.4031 23.3169 33.1724 23.3169C32.8637 23.3169 32.6033 23.3833 32.3913 23.5163C32.1792 23.6461 32.0732 23.8202 32.0732 24.0386C32.0732 24.2127 32.1418 24.3598 32.279 24.4801C32.4162 24.6004 32.6516 24.6969 32.9853 24.7697L34.2856 25.0356C34.9841 25.1812 35.5048 25.4155 35.8478 25.7383C36.1909 26.0612 36.3624 26.4853 36.3624 27.0108C36.3624 27.4887 36.2236 27.9081 35.9461 28.269C35.6717 28.6298 35.2944 28.9115 34.8141 29.1141C34.3371 29.3135 33.7867 29.4132 33.163 29.4132C32.212 29.4132 31.4542 29.2122 30.8898 28.8102C30.3285 28.4051 29.9996 27.8543 29.9029 27.158L31.8627 27.0535C31.922 27.3479 32.0654 27.5726 32.293 27.7277C32.5207 27.8796 32.8122 27.9556 33.1677 27.9556C33.517 27.9556 33.7976 27.8875 34.0096 27.7514C34.2248 27.6122 34.3339 27.4333 34.3371 27.2149C34.3339 27.0313 34.2575 26.881 34.1079 26.7639C33.9582 26.6436 33.7274 26.5518 33.4156 26.4885L32.1714 26.2369C31.4698 26.0944 30.9475 25.8475 30.6045 25.4962C30.2646 25.1448 30.0947 24.6969 30.0947 24.1525C30.0947 23.684 30.2194 23.2805 30.4689 22.9418C30.7214 22.6031 31.0754 22.342 31.5306 22.1584C31.989 21.9748 32.5253 21.883 33.1396 21.883C34.0471 21.883 34.7611 22.0777 35.2819 22.467C35.8057 22.8563 36.1113 23.3865 36.1987 24.0576Z" fill="white"/>
<path d="M49.5058 24.4089C49.5058 25.4693 49.3078 26.3714 48.9117 27.1152C48.5188 27.8591 47.9825 28.4272 47.3027 28.8197C46.6261 29.2091 45.8652 29.4037 45.0202 29.4037C44.1689 29.4037 43.4049 29.2075 42.7283 28.815C42.0516 28.4225 41.5168 27.8543 41.1239 27.1105C40.731 26.3666 40.5346 25.4661 40.5346 24.4089C40.5346 23.3485 40.731 22.4464 41.1239 21.7026C41.5168 20.9587 42.0516 20.3922 42.7283 20.0028C43.4049 19.6103 44.1689 19.4141 45.0202 19.4141C45.8652 19.4141 46.6261 19.6103 47.3027 20.0028C47.9825 20.3922 48.5188 20.9587 48.9117 21.7026C49.3078 22.4464 49.5058 23.3485 49.5058 24.4089ZM47.4524 24.4089C47.4524 23.722 47.3511 23.1428 47.1484 22.6712C46.9488 22.1995 46.6666 21.8419 46.3018 21.5981C45.9369 21.3544 45.5097 21.2325 45.0202 21.2325C44.5306 21.2325 44.1034 21.3544 43.7386 21.5981C43.3737 21.8419 43.09 22.1995 42.8873 22.6712C42.6877 23.1428 42.5879 23.722 42.5879 24.4089C42.5879 25.0958 42.6877 25.675 42.8873 26.1466C43.09 26.6183 43.3737 26.9759 43.7386 27.2197C44.1034 27.4634 44.5306 27.5853 45.0202 27.5853C45.5097 27.5853 45.9369 27.4634 46.3018 27.2197C46.6666 26.9759 46.9488 26.6183 47.1484 26.1466C47.3511 25.675 47.4524 25.0958 47.4524 24.4089Z" fill="white"/>
<path d="M54.8321 21.978V23.4973H50.398V21.978H54.8321ZM51.413 29.2708V21.4509C51.413 20.9223 51.5143 20.4839 51.717 20.1358C51.9228 19.7876 52.2034 19.5264 52.5589 19.3524C52.9144 19.1783 53.3182 19.0912 53.7704 19.0912C54.076 19.0912 54.355 19.115 54.6076 19.1624C54.8633 19.2099 55.0535 19.2527 55.1783 19.2906L54.8228 20.81C54.7448 20.7846 54.6482 20.7609 54.5328 20.7388C54.4205 20.7166 54.3051 20.7055 54.1867 20.7055C53.8935 20.7055 53.6893 20.7752 53.5739 20.9144C53.4585 21.0505 53.4009 21.242 53.4009 21.4889V29.2708H51.413Z" fill="white"/>
<path d="M59.1353 29.2708V19.547H65.5901V21.242H61.1606V23.559H65.258V25.254H61.1606V27.5758H65.6088V29.2708H59.1353Z" fill="white"/>
<path d="M68.828 21.978L70.147 24.5276L71.4988 21.978H73.5428L71.4614 25.6244L73.5989 29.2708H71.5643L70.147 26.7496L68.7532 29.2708H66.6951L68.828 25.6244L66.77 21.978H68.828Z" fill="white"/>
<path d="M74.7262 32.0056V21.978H76.6907V23.2029H76.7795C76.8668 23.0067 76.9931 22.8073 77.1584 22.6047C77.3268 22.3989 77.5451 22.228 77.8132 22.0919C78.0845 21.9526 78.4213 21.883 78.8235 21.883C79.3474 21.883 79.8307 22.0223 80.2735 22.3008C80.7163 22.5762 81.0702 22.9924 81.3353 23.5495C81.6003 24.1035 81.7329 24.7982 81.7329 25.6339C81.7329 26.4473 81.6035 27.1342 81.3446 27.6945C81.089 28.2516 80.7397 28.6741 80.2969 28.9622C79.8572 29.247 79.3646 29.3895 78.8189 29.3895C78.4322 29.3895 78.1032 29.3246 77.8319 29.1948C77.5638 29.065 77.3439 28.902 77.1724 28.7058C77.0009 28.5064 76.87 28.3054 76.7795 28.1028H76.7187V32.0056H74.7262ZM76.6766 25.6244C76.6766 26.058 76.7359 26.4363 76.8544 26.7591C76.9729 27.082 77.1444 27.3336 77.3689 27.514C77.5934 27.6913 77.8662 27.7799 78.1874 27.7799C78.5117 27.7799 78.7861 27.6897 79.0106 27.5093C79.2351 27.3257 79.4051 27.0725 79.5205 26.7496C79.639 26.4236 79.6982 26.0485 79.6982 25.6244C79.6982 25.2034 79.6405 24.833 79.5251 24.5134C79.4098 24.1937 79.2398 23.9436 79.0153 23.7632C78.7908 23.5828 78.5148 23.4926 78.1874 23.4926C77.8631 23.4926 77.5887 23.5796 77.3642 23.7537C77.1428 23.9278 76.9729 24.1747 76.8544 24.4944C76.7359 24.8141 76.6766 25.1907 76.6766 25.6244Z" fill="white"/>
<path d="M86.3354 29.4132C85.5964 29.4132 84.9603 29.2613 84.427 28.9574C83.8969 28.6504 83.4884 28.2167 83.2016 27.6565C82.9147 27.0931 82.7712 26.4268 82.7712 25.6576C82.7712 24.9074 82.9147 24.2491 83.2016 23.6825C83.4884 23.1159 83.8923 22.6743 84.413 22.3578C84.9369 22.0413 85.5512 21.883 86.2559 21.883C86.7299 21.883 87.1711 21.9606 87.5796 22.1157C87.9912 22.2676 88.3498 22.4971 88.6554 22.8041C88.9641 23.1111 89.2042 23.4973 89.3757 23.9626C89.5472 24.4247 89.6329 24.966 89.6329 25.5864V26.1419H83.5664V24.8884H87.7573C87.7573 24.5972 87.695 24.3393 87.5702 24.1145C87.4455 23.8898 87.2724 23.7141 87.051 23.5875C86.8328 23.4577 86.5786 23.3928 86.2886 23.3928C85.9862 23.3928 85.718 23.4641 85.4841 23.6065C85.2534 23.7458 85.0725 23.9341 84.9415 24.1715C84.8106 24.4057 84.7435 24.6669 84.7404 24.9549V26.1466C84.7404 26.5075 84.8059 26.8193 84.9369 27.082C85.0709 27.3447 85.2596 27.5473 85.5028 27.6897C85.746 27.8322 86.0345 27.9034 86.3681 27.9034C86.5895 27.9034 86.7922 27.8717 86.9762 27.8084C87.1602 27.7451 87.3176 27.6502 87.4486 27.5235C87.5796 27.3969 87.6794 27.2418 87.748 27.0582L89.5908 27.1817C89.4973 27.6312 89.3055 28.0237 89.0155 28.3592C88.7287 28.6915 88.3576 28.9511 87.9023 29.1378C87.4502 29.3214 86.9279 29.4132 86.3354 29.4132Z" fill="white"/>
<path d="M90.9333 29.2708V21.978H92.865V23.2504H92.9398C93.0708 22.7978 93.2906 22.4559 93.5994 22.2249C93.9081 21.9906 94.2635 21.8735 94.6658 21.8735C94.7656 21.8735 94.8732 21.8798 94.9885 21.8925C95.1039 21.9052 95.2053 21.9226 95.2926 21.9447V23.7394C95.199 23.711 95.0696 23.6856 94.9043 23.6635C94.7391 23.6413 94.5878 23.6302 94.4506 23.6302C94.1575 23.6302 93.8956 23.6951 93.6648 23.8249C93.4372 23.9515 93.2563 24.1288 93.1223 24.3567C92.9913 24.5846 92.9258 24.8473 92.9258 25.1448V29.2708H90.9333Z" fill="white"/>
<path d="M96.3228 29.2708V21.978H98.3153V29.2708H96.3228ZM97.3237 21.0379C97.0275 21.0379 96.7733 20.9382 96.5613 20.7388C96.3524 20.5362 96.2479 20.294 96.2479 20.0123C96.2479 19.7338 96.3524 19.4948 96.5613 19.2954C96.7733 19.0928 97.0275 18.9915 97.3237 18.9915C97.6199 18.9915 97.8725 19.0928 98.0815 19.2954C98.2935 19.4948 98.3995 19.7338 98.3995 20.0123C98.3995 20.294 98.2935 20.5362 98.0815 20.7388C97.8725 20.9382 97.6199 21.0379 97.3237 21.0379Z" fill="white"/>
<path d="M103.186 29.4132C102.447 29.4132 101.81 29.2613 101.277 28.9574C100.747 28.6504 100.339 28.2167 100.052 27.6565C99.7649 27.0931 99.6215 26.4268 99.6215 25.6576C99.6215 24.9074 99.7649 24.2491 100.052 23.6825C100.339 23.1159 100.742 22.6743 101.263 22.3578C101.787 22.0413 102.401 21.883 103.106 21.883C103.58 21.883 104.021 21.9606 104.43 22.1157C104.841 22.2676 105.2 22.4971 105.506 22.8041C105.814 23.1111 106.054 23.4973 106.226 23.9626C106.397 24.4247 106.483 24.966 106.483 25.5864V26.1419H100.417V24.8884H104.608C104.608 24.5972 104.545 24.3393 104.42 24.1145C104.296 23.8898 104.123 23.7141 103.901 23.5875C103.683 23.4577 103.429 23.3928 103.139 23.3928C102.836 23.3928 102.568 23.4641 102.334 23.6065C102.104 23.7458 101.923 23.9341 101.792 24.1715C101.661 24.4057 101.594 24.6669 101.591 24.9549V26.1466C101.591 26.5075 101.656 26.8193 101.787 27.082C101.921 27.3447 102.11 27.5473 102.353 27.6897C102.596 27.8322 102.885 27.9034 103.218 27.9034C103.44 27.9034 103.642 27.8717 103.826 27.8084C104.01 27.7451 104.168 27.6502 104.299 27.5235C104.43 27.3969 104.53 27.2418 104.598 27.0582L106.441 27.1817C106.348 27.6312 106.156 28.0237 105.866 28.3592C105.579 28.6915 105.208 28.9511 104.753 29.1378C104.3 29.3214 103.778 29.4132 103.186 29.4132Z" fill="white"/>
<path d="M109.776 25.0546V29.2708H107.783V21.978H109.683V23.2646H109.767C109.926 22.8405 110.192 22.505 110.567 22.2581C110.941 22.008 111.394 21.883 111.928 21.883C112.427 21.883 112.862 21.9938 113.233 22.2154C113.604 22.4369 113.892 22.7535 114.098 23.1649C114.304 23.5733 114.407 24.0607 114.407 24.6273V29.2708H112.414V24.9881C112.417 24.5418 112.305 24.1937 112.077 23.9436C111.85 23.6904 111.536 23.5638 111.137 23.5638C110.869 23.5638 110.632 23.6223 110.426 23.7394C110.224 23.8566 110.064 24.0275 109.949 24.2522C109.837 24.4738 109.779 24.7413 109.776 25.0546Z" fill="white"/>
<path d="M119.223 29.4132C118.487 29.4132 117.854 29.255 117.324 28.9384C116.797 28.6187 116.392 28.1756 116.108 27.609C115.827 27.0424 115.687 26.3904 115.687 25.6529C115.687 24.9059 115.829 24.2506 116.113 23.6872C116.4 23.1206 116.807 22.6791 117.334 22.3625C117.86 22.0429 118.487 21.883 119.214 21.883C119.841 21.883 120.389 21.9985 120.86 22.2296C121.331 22.4607 121.704 22.7851 121.978 23.2029C122.253 23.6207 122.404 24.1114 122.432 24.6748H120.552C120.499 24.3108 120.358 24.018 120.131 23.7964C119.906 23.5717 119.611 23.4593 119.247 23.4593C118.938 23.4593 118.668 23.5448 118.437 23.7157C118.21 23.8835 118.032 24.1288 117.904 24.4516C117.776 24.7745 117.712 25.1654 117.712 25.6244C117.712 26.0897 117.775 26.4853 117.899 26.8114C118.027 27.1374 118.207 27.3858 118.437 27.5568C118.668 27.7277 118.938 27.8132 119.247 27.8132C119.474 27.8132 119.678 27.7657 119.859 27.6707C120.043 27.5758 120.195 27.4381 120.313 27.2577C120.435 27.0741 120.514 26.8541 120.552 26.5977H122.432C122.401 27.1548 122.251 27.6454 121.983 28.0696C121.718 28.4905 121.351 28.8197 120.884 29.0571C120.416 29.2945 119.862 29.4132 119.223 29.4132Z" fill="white"/>
<path d="M126.982 29.4132C126.243 29.4132 125.607 29.2613 125.073 28.9574C124.543 28.6504 124.135 28.2167 123.848 27.6565C123.561 27.0931 123.418 26.4268 123.418 25.6576C123.418 24.9074 123.561 24.2491 123.848 23.6825C124.135 23.1159 124.539 22.6743 125.059 22.3578C125.583 22.0413 126.198 21.883 126.902 21.883C127.376 21.883 127.817 21.9606 128.226 22.1157C128.638 22.2676 128.996 22.4971 129.302 22.8041C129.61 23.1111 129.851 23.4973 130.022 23.9626C130.194 24.4247 130.279 24.966 130.279 25.5864V26.1419H124.213V24.8884H128.404C128.404 24.5972 128.341 24.3393 128.217 24.1145C128.092 23.8898 127.919 23.7141 127.697 23.5875C127.479 23.4577 127.225 23.3928 126.935 23.3928C126.633 23.3928 126.364 23.4641 126.13 23.6065C125.9 23.7458 125.719 23.9341 125.588 24.1715C125.457 24.4057 125.39 24.6669 125.387 24.9549V26.1466C125.387 26.5075 125.452 26.8193 125.583 27.082C125.717 27.3447 125.906 27.5473 126.149 27.6897C126.392 27.8322 126.681 27.9034 127.015 27.9034C127.236 27.9034 127.439 27.8717 127.623 27.8084C127.807 27.7451 127.964 27.6502 128.095 27.5235C128.226 27.3969 128.326 27.2418 128.394 27.0582L130.237 27.1817C130.144 27.6312 129.952 28.0237 129.662 28.3592C129.375 28.6915 129.004 28.9511 128.549 29.1378C128.097 29.3214 127.574 29.4132 126.982 29.4132Z" fill="white"/>
</g>
</svg>
